<?xml version="1.0" encoding="UTF-8" standalone="no"?>
<!-- Created with Inkscape (http://www.inkscape.org/) -->

<svg
   xmlns:dc="http://purl.org/dc/elements/1.1/"
   xmlns:cc="http://creativecommons.org/ns#"
   xmlns:rdf="http://www.w3.org/1999/02/22-rdf-syntax-ns#"
   xmlns:svg="http://www.w3.org/2000/svg"
   xmlns="http://www.w3.org/2000/svg"
   xmlns:xlink="http://www.w3.org/1999/xlink"
   xmlns:sodipodi="http://sodipodi.sourceforge.net/DTD/sodipodi-0.dtd"
   xmlns:inkscape="http://www.inkscape.org/namespaces/inkscape"
   width="611.38477mm"
   height="292.62756mm"
   viewBox="0 0 611.38477 292.62756"
   version="1.1"
   id="svg8"
   inkscape:version="0.92.3 (2405546, 2018-03-11)"
   sodipodi:docname="background.svg">
  <defs
     id="defs2">
    <linearGradient
       inkscape:collect="always"
       id="linearGradient1910">
      <stop
         style="stop-color:#ffffff;stop-opacity:1;"
         offset="0"
         id="stop1906" />
      <stop
         style="stop-color:#ffffff;stop-opacity:0;"
         offset="1"
         id="stop1908" />
    </linearGradient>
    <linearGradient
       inkscape:collect="always"
       id="linearGradient1902">
      <stop
         style="stop-color:#ffffff;stop-opacity:1;"
         offset="0"
         id="stop1898" />
      <stop
         style="stop-color:#ffffff;stop-opacity:0;"
         offset="1"
         id="stop1900" />
    </linearGradient>
    <linearGradient
       inkscape:collect="always"
       id="linearGradient1894">
      <stop
         style="stop-color:#ffffff;stop-opacity:1;"
         offset="0"
         id="stop1890" />
      <stop
         style="stop-color:#ffffff;stop-opacity:0;"
         offset="1"
         id="stop1892" />
    </linearGradient>
    <linearGradient
       inkscape:collect="always"
       id="linearGradient1858">
      <stop
         style="stop-color:#ffffff;stop-opacity:1;"
         offset="0"
         id="stop1854" />
      <stop
         style="stop-color:#ffffff;stop-opacity:0;"
         offset="1"
         id="stop1856" />
    </linearGradient>
    <linearGradient
       inkscape:collect="always"
       id="linearGradient1826">
      <stop
         style="stop-color:#ffffff;stop-opacity:1;"
         offset="0"
         id="stop1822" />
      <stop
         style="stop-color:#ffffff;stop-opacity:0;"
         offset="1"
         id="stop1824" />
    </linearGradient>
    <linearGradient
       inkscape:collect="always"
       id="linearGradient1818">
      <stop
         style="stop-color:#ffffff;stop-opacity:1;"
         offset="0"
         id="stop1814" />
      <stop
         style="stop-color:#ffffff;stop-opacity:0;"
         offset="1"
         id="stop1816" />
    </linearGradient>
    <linearGradient
       inkscape:collect="always"
       id="linearGradient1662">
      <stop
         id="stop1666"
         offset="0"
         style="stop-color:#ffa912;stop-opacity:1" />
      <stop
         style="stop-color:#ffcd00;stop-opacity:0.81909549"
         offset="0.0684509"
         id="stop858" />
      <stop
         id="stop860"
         offset="0.39569485"
         style="stop-color:#75c56b;stop-opacity:0.85490196;" />
      <stop
         style="stop-color:#039a91;stop-opacity:0.84422112"
         offset="1"
         id="stop1660" />
    </linearGradient>
    <linearGradient
       inkscape:collect="always"
       xlink:href="#linearGradient1662"
       id="linearGradient1664"
       x1="97.076675"
       y1="608.13989"
       x2="98.204414"
       y2="236.17003"
       gradientUnits="userSpaceOnUse"
       gradientTransform="matrix(1,0,0,0.70963358,-135.6497,127.77951)" />
    <linearGradient
       inkscape:collect="always"
       xlink:href="#linearGradient1818"
       id="linearGradient1820"
       x1="1210.6133"
       y1="1737.1384"
       x2="1237.3153"
       y2="1153.9196"
       gradientUnits="userSpaceOnUse"
       gradientTransform="matrix(0.26458333,0,0,0.26458336,-135.64972,8.0427672)" />
    <linearGradient
       inkscape:collect="always"
       xlink:href="#linearGradient1818"
       id="linearGradient1864"
       gradientUnits="userSpaceOnUse"
       x1="509.11691"
       y1="-335.78281"
       x2="468.71082"
       y2="1470.37"
       gradientTransform="matrix(0.26458333,0,0,0.26458333,-135.64971,8.0427632)" />
    <linearGradient
       inkscape:collect="always"
       xlink:href="#linearGradient1826"
       id="linearGradient1868"
       gradientUnits="userSpaceOnUse"
       x1="372.20764"
       y1="195.77342"
       x2="228.24541"
       y2="336.91235"
       gradientTransform="translate(-57.679163,-42.333335)" />
    <linearGradient
       inkscape:collect="always"
       xlink:href="#linearGradient1858"
       id="linearGradient1876"
       gradientUnits="userSpaceOnUse"
       x1="187.9688"
       y1="-86.37014"
       x2="191.90445"
       y2="162.70297"
       gradientTransform="translate(-2.0385741e-6,1.0664065e-5)" />
    <linearGradient
       inkscape:collect="always"
       xlink:href="#linearGradient1858"
       id="linearGradient1888"
       x1="439.33429"
       y1="132.60115"
       x2="311.51129"
       y2="251.68033"
       gradientUnits="userSpaceOnUse"
       gradientTransform="translate(-57.679162,-42.333337)" />
    <linearGradient
       inkscape:collect="always"
       xlink:href="#linearGradient1894"
       id="linearGradient1896"
       x1="295.01044"
       y1="31.318798"
       x2="425.021"
       y2="81.896774"
       gradientUnits="userSpaceOnUse"
       gradientTransform="translate(-57.679162,-42.333335)" />
    <linearGradient
       inkscape:collect="always"
       xlink:href="#linearGradient1902"
       id="linearGradient1904"
       x1="419.6431"
       y1="74.56176"
       x2="448.49698"
       y2="151.45529"
       gradientUnits="userSpaceOnUse"
       gradientTransform="translate(-57.679162,-42.333335)" />
    <linearGradient
       inkscape:collect="always"
       xlink:href="#linearGradient1910"
       id="linearGradient1912"
       x1="307.93234"
       y1="31.915171"
       x2="319.70264"
       y2="353.95279"
       gradientUnits="userSpaceOnUse"
       gradientTransform="translate(-57.679162,-42.333335)" />
    <linearGradient
       inkscape:collect="always"
       xlink:href="#linearGradient1858"
       id="linearGradient1995"
       gradientUnits="userSpaceOnUse"
       gradientTransform="translate(-57.679162,-42.333325)"
       x1="187.9688"
       y1="-86.37014"
       x2="177.78447"
       y2="266.10455" />
    <clipPath
       clipPathUnits="userSpaceOnUse"
       id="clipPath1720">
      <rect
         style="opacity:1;fill:#2b1100;fill-opacity:0.98492462;stroke:#f8b003;stroke-width:0.49999997;stroke-linecap:square;stroke-linejoin:miter;stroke-miterlimit:4;stroke-dasharray:none;stroke-dashoffset:0;stroke-opacity:0.76381908;paint-order:markers fill stroke"
         id="rect1722"
         width="2310.7456"
         height="1105.9938"
         x="31.17111"
         y="208.54837" />
    </clipPath>
  </defs>
  <sodipodi:namedview
     id="base"
     pagecolor="#ffffff"
     bordercolor="#666666"
     borderopacity="1.0"
     inkscape:pageopacity="0.0"
     inkscape:pageshadow="2"
     inkscape:zoom="0.35355339"
     inkscape:cx="965.18831"
     inkscape:cy="105.98708"
     inkscape:document-units="mm"
     inkscape:current-layer="layer1"
     showgrid="false"
     inkscape:window-width="1221"
     inkscape:window-height="1002"
     inkscape:window-x="0"
     inkscape:window-y="0"
     inkscape:window-maximized="0" />
  <metadata
     id="metadata5">
    <rdf:RDF>
      <cc:Work
         rdf:about="">
        <dc:format>image/svg+xml</dc:format>
        <dc:type
           rdf:resource="http://purl.org/dc/dcmitype/StillImage" />
        <dc:title />
      </cc:Work>
    </rdf:RDF>
  </metadata>
  <g
     inkscape:label="Layer 1"
     inkscape:groupmode="layer"
     id="layer1"
     transform="translate(135.6497,-127.77952)">
    <rect
       style="fill:url(#linearGradient1664);fill-opacity:1;stroke:#f09024;stroke-width:0;stroke-linecap:square;stroke-linejoin:miter;stroke-miterlimit:4;stroke-dasharray:none;stroke-dashoffset:40.25196838;stroke-opacity:0;paint-order:markers fill stroke"
       id="rect1656"
       width="611.38477"
       height="292.62756"
       x="-135.6497"
       y="127.77952" />
    <path
       style="opacity:0.23000004;fill:url(#linearGradient1820);fill-opacity:1;stroke:#f09024;stroke-width:0;stroke-linecap:square;stroke-linejoin:miter;stroke-miterlimit:4;stroke-dasharray:none;stroke-dashoffset:40.25196838;stroke-opacity:0;paint-order:markers fill stroke"
       d="m 262.07446,292.26365 c 17.99068,-13.94736 23.84181,-4.23234 58.18636,5.17436 11.93256,-5.26494 23.35417,-33.75902 38.51539,-32.27277 34.06216,3.4091 64.21702,23.70793 72.13315,48.55665 20.48029,3.01736 36.94109,16.88575 37.64654,31.71759 0.73778,15.56064 -16.08136,26.44472 -37.56686,24.31043 -8.21862,-0.82826 -16.31035,-3.51953 -23.11479,-7.68786 -12.34758,6.08398 -27.92353,8.52005 -44.1729,6.90863 -15.72565,-1.5756 -31.1863,-6.85272 -43.99872,-15.01789 -15.92096,10.73965 -40.65082,15.46302 -67.17107,12.8296 -16.16702,-1.61877 -32.13584,-5.89092 -46.11591,-12.3374 -10.69939,6.65458 -26.69263,9.51905 -43.76514,7.83857 -12.16731,-1.22852 -24.12749,-4.69332 -34.20774,-9.9098 0.26521,8.84875 -9.35896,14.9873 -21.59896,13.77639 -4.72614,-0.47643 -9.379267,-2.02414 -13.292126,-4.4212 -7.100849,3.49877 -16.058297,4.89968 -25.402991,3.97291 -9.04327,-0.90608 -17.934157,-3.94074 -25.302167,-8.63621 -9.155717,6.17622 -23.377373,8.89257 -38.628648,7.3781 -9.2970164,-0.93091 -18.480051,-3.38763 -26.519471,-7.09472 -6.152998,3.82672 -15.350209,5.47388 -25.168007,4.50743 -14.096698,-1.41141 -26.928362,-7.92534 -32.119397,-16.30525 -3.045311,1.05234 -6.573897,1.42091 -10.207346,1.06619 -11.055027,-1.09802 -20.325037,-8.47861 -20.705357,-16.48517 -0.38006,-8.00685 8.27424,-13.60747 19.329723,-12.50918 0.173575,0.0199 0.347172,0.0414 0.520748,0.0645 2.754572,-4.38513 9.073633,-6.74442 16.188883,-6.04429 1.396822,0.14437 2.793643,0.40426 4.163038,0.77458 -0.01557,-0.12184 -0.02966,-0.2436 -0.04227,-0.36526 -0.535995,-11.3035 11.681803,-19.20983 27.289213,-17.65928 1.877521,0.19353 3.755826,0.52195 5.607079,0.98039 5.878407,-10.45783 20.506905,-16.19777 37.1095008,-14.56106 l 1.215e-4,8.6e-4 C 19.571662,282.8028 37.1107,294.81204 41.34173,309.35063 c 3.53326,-1.54673 -4.229184,0.54317 0,0 0.04729,-13.47247 12.847766,-14.71537 31.556509,-12.87224 -6.159252,2.12302 4.953248,3.18135 12.017428,1.1705 4.790109,-7.62547 3.620863,-1.15124 15.993903,0.0665 2.4289,0.25099 19.66152,-22.04475 22.04274,-21.40086 -0.0275,-0.21184 7.14305,21.91018 7.12072,21.69866 -0.93235,-19.65624 10.50194,2.69109 37.64244,5.38777 3.26461,0.33645 10.20552,8.09434 13.42448,8.89138 19.34586,-13.76276 23.48913,-12.2908 52.3593,-9.44463 z"
       id="path1799"
       inkscape:connector-curvature="0"
       sodipodi:nodetypes="ccccccccccccccccccccccccccccccccccccccccccc" />
    <path
       style="fill:url(#linearGradient1888);fill-opacity:1;stroke:#f09024;stroke-width:0;stroke-linecap:square;stroke-linejoin:miter;stroke-miterlimit:4;stroke-dasharray:none;stroke-dashoffset:40.25196838;stroke-opacity:0;paint-order:markers fill stroke"
       d="m 392.76578,197.81966 a 31.858715,37.669432 0 0 0 -31.31954,30.93636 31.858715,37.669432 0 0 0 -18.74492,-7.25891 31.858715,37.669432 0 0 0 -31.19002,30.18321 17.29473,20.449117 0 0 0 -16.14286,20.40149 17.29473,20.449117 0 0 0 17.29527,20.44871 17.29473,20.449117 0 0 0 10.1607,-3.93155 31.858715,37.669432 0 0 0 19.87691,8.23655 31.858715,37.669432 0 0 0 19.33402,-7.76346 38.685583,37.669432 0 0 0 30.27534,14.22094 38.685583,37.669432 0 0 0 18.01655,-4.38786 11.893508,14.062767 0 0 0 2.31994,-1.26821 19.939115,19.415375 0 0 0 18.71206,12.78178 19.939115,19.415375 0 0 0 15.15279,-6.82884 29.73377,28.952756 0 0 0 15.63004,4.34695 29.73377,28.952756 0 0 0 23.26942,-10.9303 24.486635,28.952756 0 0 0 14.86004,5.96759 24.486635,28.952756 0 0 0 15.27782,-6.3316 13.292742,15.717208 0 0 0 7.80974,3.02211 13.292742,15.717208 0 0 0 13.29326,-15.71681 13.292742,15.717208 0 0 0 -12.40789,-15.6811 24.486635,28.952756 0 0 0 -23.97293,-23.19913 24.486635,28.952756 0 0 0 -14.40668,5.5795 24.486635,28.952756 0 0 0 -24.07232,-23.77711 v -0.001 a 24.486635,28.952756 0 0 0 -16.09317,7.20434 21.845975,25.830466 0 0 0 -19.25501,-13.6503 21.845975,25.830466 0 0 0 -4.31962,0.53601 31.858715,37.669432 0 0 0 -29.35894,-23.13826 z"
       id="path1791"
       inkscape:connector-curvature="0" />
    <path
       style="fill:url(#linearGradient1896);fill-opacity:1;stroke:#f09024;stroke-width:0;stroke-linecap:square;stroke-linejoin:miter;stroke-miterlimit:4;stroke-dasharray:none;stroke-dashoffset:40.25196838;stroke-opacity:0;paint-order:markers fill stroke"
       d="m 422.43304,57.181999 a 17.714283,17.714283 0 0 0 -17.41444,14.54795 17.714283,17.714283 0 0 0 -10.42261,-3.41375 17.714283,17.714283 0 0 0 -17.3421,14.19397 9.6163235,9.6163235 0 0 0 -3.41891,0.88832 8.7061663,8.7061663 0 0 0 -7.76438,-4.80694 h -5.2e-4 a 8.7061663,8.7061663 0 0 0 -8.55865,7.14995 8.7061663,8.7061663 0 0 0 -5.12217,-1.67794 8.7061663,8.7061663 0 0 0 -8.52351,6.9758 4.7262039,4.7262039 0 0 0 -4.41162,4.71548 4.7262039,4.7262039 0 0 0 4.72633,4.726331 4.7262039,4.7262039 0 0 0 2.77657,-0.908991 8.7061663,8.7061663 0 0 0 5.43223,1.903761 8.7061663,8.7061663 0 0 0 5.2834,-1.794211 10.571773,8.7061663 0 0 0 8.27339,3.286621 10.571773,8.7061663 0 0 0 5.55729,-1.30689 7.0893063,5.8382526 0 0 0 5.38727,2.05362 7.0893063,5.8382526 0 0 0 6.65334,-3.843701 17.714283,17.714283 0 0 0 11.05204,3.873671 17.714283,17.714283 0 0 0 10.75024,-3.65094 21.5102,17.714283 0 0 0 16.8336,6.68745 21.5102,17.714283 0 0 0 11.30784,-2.65979 14.424486,11.878989 0 0 0 10.9616,4.17856 14.424486,11.878989 0 0 0 13.53716,-7.8202 8.6040803,8.6040803 0 0 0 4.43022,1.24024 8.6040803,8.6040803 0 0 0 8.60413,-8.603611 8.6040803,8.6040803 0 0 0 -8.60413,-8.60413 8.6040803,8.6040803 0 0 0 -0.22376,0.008 7.8448968,7.8448968 0 0 0 -7.11533,-4.56302 7.8448968,7.8448968 0 0 0 -1.7818,0.21497 12.146937,12.146937 0 0 0 0.0109,-0.21497 12.146937,12.146937 0 0 0 -12.14758,-12.14655 12.146937,12.146937 0 0 0 -2.4014,0.25218 17.714283,17.714283 0 0 0 -16.32459,-10.88099 z"
       id="path1793"
       inkscape:connector-curvature="0" />
    <path
       inkscape:connector-curvature="0"
       id="path1803"
       d="m 302.65423,300.29593 a 55.238252,41.722893 0 0 1 54.30312,34.26561 55.238252,41.722893 0 0 1 32.5001,-8.04058 55.238252,41.722893 0 0 1 54.07892,33.43119 29.986474,22.649566 0 0 1 27.99005,22.59705 29.986474,22.649566 0 0 1 -29.98725,22.649 29.986474,22.649566 0 0 1 -17.61787,-4.35507 55.238252,41.722893 0 0 1 -34.46385,9.12391 55.238252,41.722893 0 0 1 -33.52234,-8.59954 67.075015,41.722893 0 0 1 -52.49211,15.75162 67.075015,41.722893 0 0 1 -35.26024,-6.26472 44.979715,27.978879 0 0 1 -34.18147,9.84187 44.979715,27.978879 0 0 1 -42.21314,-18.41948 26.830008,20.265405 0 0 1 -13.81411,2.92141 26.830008,20.265405 0 0 1 -26.83044,-20.26453 26.830008,20.265405 0 0 1 26.83044,-20.26572 26.830008,20.265405 0 0 1 0.69727,0.0177 24.462656,18.477282 0 0 1 22.18756,-10.74767 24.462656,18.477282 0 0 1 5.55678,0.50701 37.877658,28.609984 0 0 1 -0.0293,-0.50701 37.877658,28.609984 0 0 1 37.87837,-28.60938 37.877658,28.609984 0 0 1 7.48837,0.59464 55.238252,41.722893 0 0 1 50.90535,-25.62802 z"
       style="fill:url(#linearGradient1912);fill-opacity:1;stroke:#f09024;stroke-width:0;stroke-linecap:square;stroke-linejoin:miter;stroke-miterlimit:4;stroke-dasharray:none;stroke-dashoffset:40.25196838;stroke-opacity:0;paint-order:markers fill stroke" />
    <path
       style="fill:url(#linearGradient1904);fill-opacity:1;stroke:#f09024;stroke-width:0;stroke-linecap:square;stroke-linejoin:miter;stroke-miterlimit:4;stroke-dasharray:none;stroke-dashoffset:40.25196838;stroke-opacity:0;paint-order:markers fill stroke"
       d="m 419.46592,92.40788 a 14.263216,14.263216 0 0 1 14.02175,11.71389 14.263216,14.263216 0 0 1 8.39194,-2.74872 14.263216,14.263216 0 0 1 13.96386,11.42866 7.7428874,7.7428874 0 0 1 7.22737,7.72495 7.7428874,7.7428874 0 0 1 -7.74308,7.74268 7.7428874,7.7428874 0 0 1 -4.54916,-1.48881 14.263216,14.263216 0 0 1 -8.89899,3.11906 14.263216,14.263216 0 0 1 -8.6559,-2.9398 17.319619,14.263216 0 0 1 -13.55411,5.38477 17.319619,14.263216 0 0 1 -9.10464,-2.14161 11.614332,9.5647444 0 0 1 -8.82609,3.36449 11.614332,9.5647444 0 0 1 -10.89996,-6.29681 6.9278479,6.9278479 0 0 1 -3.567,0.99871 6.9278479,6.9278479 0 0 1 -6.92795,-6.92756 6.9278479,6.9278479 0 0 1 6.92795,-6.92795 6.9278479,6.9278479 0 0 1 0.18005,0.006 6.3165675,6.3165675 0 0 1 5.72911,-3.67416 6.3165675,6.3165675 0 0 1 1.43483,0.17334 9.7804911,9.7804911 0 0 1 -0.009,-0.17334 9.7804911,9.7804911 0 0 1 9.78068,-9.78029 9.7804911,9.7804911 0 0 1 1.9336,0.20328 14.263216,14.263216 0 0 1 13.1444,-8.76108 z"
       id="path1807"
       inkscape:connector-curvature="0" />
    <path
       inkscape:connector-curvature="0"
       id="path1866"
       d="m 169.40514,167.66654 a 50.406641,45.915032 0 0 1 49.55334,37.70844 50.406641,45.915032 0 0 1 29.6574,-8.84846 50.406641,45.915032 0 0 1 49.34867,36.79022 27.363601,24.925298 0 0 1 25.54173,24.86757 27.363601,24.925298 0 0 1 -27.36423,24.92464 27.363601,24.925298 0 0 1 -16.07691,-4.79266 50.406641,45.915032 0 0 1 -31.44926,10.04062 50.406641,45.915032 0 0 1 -30.59023,-9.46358 61.208063,45.915032 0 0 1 -47.90068,17.33425 61.208063,45.915032 0 0 1 -32.17607,-6.89412 41.045404,30.790079 0 0 1 -31.19169,10.83072 41.045404,30.790079 0 0 1 -38.520765,-20.27021 24.483226,22.301587 0 0 1 -12.605905,3.21498 24.483226,22.301587 0 0 1 -24.4836,-22.30066 24.483226,22.301587 0 0 1 24.4836,-22.30192 24.483226,22.301587 0 0 1 0.636299,0.0196 22.322942,20.3338 0 0 1 20.246861,-11.82758 22.322942,20.3338 0 0 1 5.07071,0.55802 34.564555,31.484593 0 0 1 -0.03074,-0.55802 34.564555,31.484593 0 0 1 34.56522,-31.48395 34.564555,31.484593 0 0 1 6.83342,0.65441 50.406641,45.915032 0 0 1 46.4527,-28.20301 z"
       style="fill:url(#linearGradient1868);fill-opacity:1;stroke:#f09024;stroke-width:0;stroke-linecap:square;stroke-linejoin:miter;stroke-miterlimit:4;stroke-dasharray:none;stroke-dashoffset:40.25196838;stroke-opacity:0;paint-order:markers fill stroke" />
    <path
       id="path1862"
       d="m 9.79788,173.78028 a 41.203757,41.203757 0 0 0 -40.50644,33.8398 41.203757,41.203757 0 0 0 -24.24301,-7.94094 41.203757,41.203757 0 0 0 -40.338891,33.01516 22.36775,22.36775 0 0 0 -20.878259,22.31618 22.36775,22.36775 0 0 0 22.367869,22.36722 22.36775,22.36775 0 0 0 13.1422,-4.30067 41.203757,41.203757 0 0 0 25.707081,9.01039 41.203757,41.203757 0 0 0 25.00549,-8.4927 50.033132,41.203757 0 0 0 39.15493,15.55532 50.033132,41.203757 0 0 0 26.30201,-6.1869 33.551628,27.630754 0 0 0 25.49701,9.71983 33.551628,27.630754 0 0 0 19.48945,-5.19406 12.863056,12.863056 0 0 0 12.854847,12.69978 12.863056,12.863056 0 0 0 7.557403,-2.47334 23.695106,23.695106 0 0 0 14.78365,5.18161 23.695106,23.695106 0 0 0 14.37981,-4.88381 28.772628,23.695106 0 0 0 22.51715,8.94558 28.772628,23.695106 0 0 0 15.12529,-3.55781 19.294585,15.889659 0 0 0 14.66253,5.58936 19.294585,15.889659 0 0 0 18.10781,-10.46074 11.509052,11.509052 0 0 0 5.92576,1.65915 11.509052,11.509052 0 0 0 11.50922,-11.50859 11.509052,11.509052 0 0 0 -11.50922,-11.50923 11.509052,11.509052 0 0 0 -0.29908,0.0101 10.493547,10.493547 0 0 0 -9.51763,-6.10377 10.493547,10.493547 0 0 0 -2.38366,0.28798 16.248073,16.248073 0 0 0 0.0144,-0.28798 16.248073,16.248073 0 0 0 -16.24841,-16.24776 16.248073,16.248073 0 0 0 -3.21223,0.33774 23.695106,23.695106 0 0 0 -21.83644,-14.55458 v 6.5e-4 a 23.695106,23.695106 0 0 0 -23.29397,19.45999 23.695106,23.695106 0 0 0 -6.85777,-3.4459 20.013254,20.013254 0 0 0 -19.97702,-19.27542 20.013254,20.013254 0 0 0 -0.51968,0.0177 18.247379,18.247379 0 0 0 -16.55076,-10.61387 18.247379,18.247379 0 0 0 -4.14491,0.50066 28.254006,28.254006 0 0 0 0.0256,-0.50066 28.254006,28.254006 0 0 0 -28.25504,-28.25373 28.254006,28.254006 0 0 0 -5.58541,0.58708 41.203757,41.203757 0 0 0 -37.97162,-25.30851 z"
       style="fill:url(#linearGradient1864);fill-opacity:1;stroke:#f09024;stroke-width:0;stroke-linecap:square;stroke-linejoin:miter;stroke-miterlimit:4;stroke-dasharray:none;stroke-dashoffset:40.25196838;stroke-opacity:0;paint-order:markers fill stroke"
       inkscape:connector-curvature="0" />
    <path
       style="fill:url(#linearGradient1995);fill-opacity:1;stroke:#f09024;stroke-width:0;stroke-linecap:square;stroke-linejoin:miter;stroke-miterlimit:4;stroke-dasharray:none;stroke-dashoffset:40.25196838;stroke-opacity:0;paint-order:markers fill stroke"
       d="m 24.696364,80.94401 a 51.221375,53.850495 0 0 0 -47.203157,33.07701 35.123227,36.926051 0 0 0 -6.9439,-0.76757 35.123227,36.926051 0 0 0 -35.124192,36.92518 35.123227,36.926051 0 0 0 0.03247,0.6543 22.683752,23.848078 0 0 0 -5.152488,-0.6543 22.683752,23.848078 0 0 0 -20.574314,13.87169 24.878954,26.155954 0 0 0 -0.646238,-0.0222 24.878954,26.155954 0 0 0 -24.879405,26.1565 24.878954,26.155954 0 0 0 24.879405,26.15445 24.878954,26.155954 0 0 0 12.809151,-3.77061 41.708831,36.111506 0 0 0 39.143387,23.77351 41.708831,36.111506 0 0 0 31.695801,-12.70217 62.197384,53.850495 0 0 0 32.696833,8.08503 62.197384,53.850495 0 0 0 48.67462,-20.33005 51.221375,53.850495 0 0 0 31.084403,11.09927 51.221375,53.850495 0 0 0 17.60288,-3.33439 22.683752,23.848078 0 0 0 -2.68631,4.61156 24.878954,26.155954 0 0 0 -0.64705,-0.0227 24.878954,26.155954 0 0 0 -24.8794,26.15654 24.878954,26.155954 0 0 0 24.8794,26.15514 24.878954,26.155954 0 0 0 12.80996,-3.77062 41.708831,36.111506 0 0 0 39.14338,23.77352 41.708831,36.111506 0 0 0 31.6958,-12.70287 62.197384,53.850495 0 0 0 32.69603,8.08576 62.197384,53.850495 0 0 0 48.67462,-20.33011 51.221375,53.850495 0 0 0 31.08522,11.09934 51.221375,53.850495 0 0 0 31.95715,-11.77599 27.805884,29.233119 0 0 0 16.33652,5.62097 27.805884,29.233119 0 0 0 27.80649,-29.23232 27.805884,29.233119 0 0 0 -7.8103,-20.26503 26.542923,19.2941 0 0 0 18.06145,-7.18051 21.858878,19.2941 0 0 0 13.26611,3.97681 21.858878,19.2941 0 0 0 13.63753,-4.21937 11.866246,10.473938 0 0 0 6.9716,2.01393 11.866246,10.473938 0 0 0 11.86675,-10.47366 11.866246,10.473938 0 0 0 -11.07639,-10.44917 21.858878,19.2941 0 0 0 -21.39949,-15.45992 21.858878,19.2941 0 0 0 -12.86144,3.71817 21.858878,19.2941 0 0 0 -21.48904,-15.84572 21.858878,19.2941 0 0 0 -20.14427,11.85075 14.988946,13.23024 0 0 0 -2.96353,-0.27473 14.988946,13.23024 0 0 0 -9.35855,2.8989 51.221375,53.850495 0 0 0 -32.80059,-12.60499 51.221375,53.850495 0 0 0 -30.13723,10.37786 51.221375,53.850495 0 0 0 -50.35437,-44.22518 h -8.1e-4 a 51.221375,53.850495 0 0 0 -47.20395,33.07768 35.123227,36.926051 0 0 0 -6.9439,-0.76754 35.123227,36.926051 0 0 0 -3.0237,0.16077 27.805884,29.233119 0 0 0 -22.56371,-15.19356 51.221375,53.850495 0 0 0 -50.14685,-43.15046 51.221375,53.850495 0 0 0 -30.136443,10.3779 51.221375,53.850495 0 0 0 -50.354359,-44.2259 z"
       id="path1874"
       inkscape:connector-curvature="0" />
  </g>
  <g
     inkscape:groupmode="layer"
     id="layer2"
     inkscape:label="clouds"
     transform="translate(57.679164,-77.403418)" />
</svg>
